<svg xmlns="http://www.w3.org/2000/svg" viewBox="0 0 64 64">
  <defs>
    <linearGradient id="g" x1="0" y1="0" x2="0" y2="1">
      <stop offset="0%" stop-color="#FFD60A"/>
      <stop offset="100%" stop-color="#FFB400"/>
    </linearGradient>
  </defs>
  <rect width="64" height="64" rx="14" fill="#0A0A0B"/>
  <path d="M32 10c-5.5 0-10 3.2-12 7.5C18 13.2 14.5 10 10 10c0 0-1 14 4 22 2.5 4 4 10 6 18 1 4 3 4 4 0 1.5-6 3-9 5-12h6c2 3 3.5 6 5 12 1 4 3 4 4 0 2-8 3.5-14 6-18 5-8 4-22 4-22-4.5 0-8 3.2-10 7.5C42 13.2 37.5 10 32 10z" fill="url(#g)"/>
</svg>
